<?xml version="1.0" encoding="UTF-8"?>
<svg width="752px" height="117px" viewBox="0 0 752 117" version="1.1" xmlns="http://www.w3.org/2000/svg" xmlns:xlink="http://www.w3.org/1999/xlink">
    <!-- Generator: Sketch 51.2 (57519) - http://www.bohemiancoding.com/sketch -->
    <title>Group 2</title>
    <desc>Created with Sketch.</desc>
    <defs></defs>
    <g id="Page-1" stroke="none" stroke-width="1" fill="none" fill-rule="evenodd">
        <g id="Artboard" transform="translate(-49.000000, -220.000000)">
            <g id="Group-2" transform="translate(48.000000, 220.000000)">
                <g id="bus" transform="translate(10.000000, 0.000000)" fill="#E7CCA3" fill-rule="nonzero">
                    <path d="M78.4085271,14.2686823 L74.3376613,5.26608437 C72.871841,2.06501722 69.6862535,0.00967675271 66.1753568,0 L7.80806459,0 C3.49739577,0.00451582233 0.00450033366,3.50943265 0,7.83493738 L0,27.4148621 C0.00321450994,29.7850193 1.91713872,31.7055307 4.27916658,31.7087562 L10.6651283,31.7087562 C11.2881021,34.7878963 13.9857256,37 17.1166663,37 C20.2476071,37 22.9452306,34.7878963 23.5682043,31.7087562 L55.4317941,31.7087562 C56.0547679,34.7878963 58.7523914,37 61.8833321,37 C65.0142729,37 67.7118964,34.7878963 68.3348701,31.7087562 L75.3399481,31.7087562 C77.3605941,31.7068208 78.9980697,30.0637096 78.9999985,28.0361092 L78.9999985,17.0039754 C79.0006413,16.0601702 78.7987697,15.127332 78.4085271,14.2686823 Z M75.554035,14.3551278 L63.1999988,13.3177808 L63.1999988,7.76849036 L72.0772121,6.65501972 L75.554035,14.3551278 Z M17.1166663,34.3511526 C14.9352943,34.3511526 13.1666664,32.5764376 13.1666664,30.387558 C13.1666664,28.1986785 14.9352943,26.4239635 17.1166663,26.4239635 C19.2980383,26.4239635 21.0666663,28.1986785 21.0666663,30.387558 C21.0666663,32.5764376 19.2980383,34.3511526 17.1166663,34.3511526 Z M61.8833321,34.3511526 C59.7019601,34.3511526 57.9333322,32.5764376 57.9333322,30.387558 C57.9333322,28.1986785 59.7019601,26.4239635 61.8833321,26.4239635 C64.0647041,26.4239635 65.8333321,28.1986785 65.8333321,30.387558 C65.8333321,32.5764376 64.0647041,34.3511526 61.8833321,34.3511526 Z M75.3399481,29.0663599 L68.3348701,29.0663599 C67.7118964,25.9872198 65.0142729,23.7751161 61.8833321,23.7751161 C58.7523914,23.7751161 56.0547679,25.9872198 55.4317941,29.0663599 L23.5682043,29.0663599 C22.9452306,25.9872198 20.2476071,23.7751161 17.1166663,23.7751161 C13.9857256,23.7751161 11.2881021,25.9872198 10.6651283,29.0663599 L4.27916658,29.0663599 C3.37074379,29.0650697 2.63461901,28.3264114 2.63333328,27.4148621 L2.63333328,7.83493738 C2.63654776,4.96804056 4.95100084,2.64562189 7.80806459,2.64239635 L66.1753568,2.64239635 C67.7067532,2.64562189 69.1847887,3.20429269 70.337515,4.21454473 L61.8016833,5.2847927 L10.5333331,5.2847927 C9.80620908,5.2847927 9.21666649,5.87636431 9.21666649,6.60599088 L9.21666649,14.5331799 C9.21666649,15.2628065 9.80620908,15.8543781 10.5333331,15.8543781 L61.8280423,15.8543781 L76.3666652,17.0697772 L76.3666652,28.0361092 C76.3660223,28.6044566 75.9063462,29.0657148 75.3399481,29.0663599 Z M11.8499998,13.2119818 L11.8499998,7.92718905 L21.0666663,7.92718905 L21.0666663,13.2119818 L11.8499998,13.2119818 Z M23.6999995,7.92718905 L34.2333327,7.92718905 L34.2333327,13.2119818 L23.6999995,13.2119818 L23.6999995,7.92718905 Z M36.866666,7.92718905 L46.0833324,7.92718905 L46.0833324,13.2119818 L36.866666,13.2119818 L36.866666,7.92718905 Z M48.7166657,7.92718905 L60.5666655,7.92718905 L60.5666655,13.2119818 L48.7166657,13.2119818 L48.7166657,7.92718905 Z" id="Shape"></path>
                </g>
                <path d="M50.5,55.25 L693.5,55.25" id="Line" stroke="#020204" stroke-width="3" stroke-linecap="square"></path>
                <g id="Group" transform="translate(35.000000, 44.000000)">
                    <circle id="Oval-Copy" fill="#FFFFFF" cx="11" cy="11" r="11"></circle>
                    <circle id="Oval" fill="#E7CCA3" cx="11" cy="11" r="8"></circle>
                </g>
                <g id="Group-Copy" transform="translate(381.000000, 44.000000)">
                    <circle id="Oval-Copy" fill="#FFFFFF" cx="11" cy="11" r="11"></circle>
                    <circle id="Oval" fill="#E7CCA3" cx="11" cy="11" r="8"></circle>
                </g>
                <g id="Group-Copy-2" transform="translate(683.000000, 44.000000)">
                    <circle id="Oval-Copy" fill="#FFFFFF" cx="11" cy="11" r="11"></circle>
                    <circle id="Oval" fill="#E7CCA3" cx="11" cy="11" r="8"></circle>
                </g>
                <path id="Line-2" d="M130.5,20.25 L98.5,20.25 L97.5,20.25 L97.5,18.25 L98.5,18.25 L130.5,18.25 L130.5,12.25 L144.5,19.25 L130.5,26.25 L130.5,20.25 Z" fill-opacity="0.274711277" fill="#9FA0A7" fill-rule="nonzero"></path>
                <text id="Hotel-Miramar-12:00h" font-family="Roboto-Light, Roboto" font-size="18" font-weight="300">
                    <tspan x="0.147949219" y="92" fill="#020204">Hotel Miramar</tspan>
                    <tspan x="25.0297852" y="116" fill="#9FA0A7">12:00hs</tspan>
                </text>
                <text id="Hotel-BogaBoga-12:10" font-family="Roboto-Light, Roboto" font-size="18" font-weight="300">
                    <tspan x="328.392578" y="92" fill="#020204">Hotel BogaBoga</tspan>
                    <tspan x="360.789062" y="116" fill="#9FA0A7">12:10hs</tspan>
                </text>
                <text id="Minibus-Iglesia" font-family="Roboto-Light, Roboto" font-size="18" font-weight="300" fill="#020204">
                    <tspan x="635.217773" y="92">Minibus Iglesia</tspan>
                </text>
            </g>
        </g>
    </g>
</svg>